<svg xmlns="http://www.w3.org/2000/svg" xmlns:xlink="http://www.w3.org/1999/xlink" width="500" zoomAndPan="magnify" viewBox="0 0 375 374.999991" height="500" preserveAspectRatio="xMidYMid meet" version="1.0"><defs><filter x="0%" y="0%" width="100%" height="100%" id="ed413223b9"><feColorMatrix values="0 0 0 0 1 0 0 0 0 1 0 0 0 0 1 0 0 0 1 0" color-interpolation-filters="sRGB"/></filter><g/><mask id="d4edfdbabf"><g filter="url(#ed413223b9)"><rect x="-37.5" width="450" fill="#000000" y="-37.499999" height="449.999989" fill-opacity="0.9"/></g></mask><clipPath id="aeb014c408"><rect x="0" width="259" y="0" height="122"/></clipPath><mask id="7314320d1d"><g filter="url(#ed413223b9)"><rect x="-37.5" width="450" fill="#000000" y="-37.499999" height="449.999989" fill-opacity="0.9"/></g></mask><clipPath id="613da1434e"><rect x="0" width="26" y="0" height="128"/></clipPath><mask id="415b4fa81d"><g filter="url(#ed413223b9)"><rect x="-37.5" width="450" fill="#000000" y="-37.499999" height="449.999989" fill-opacity="0.9"/></g></mask><clipPath id="71f05c535c"><rect x="0" width="133" y="0" height="21"/></clipPath></defs><g mask="url(#d4edfdbabf)"><g transform="matrix(1, 0, 0, 1, 58, 120)"><g clip-path="url(#aeb014c408)"><g fill="#fff3e5" fill-opacity="1"><g transform="translate(0.751954, 101.575239)"><g><path d="M 20.234375 -7.21875 C 20.234375 -5.414062 19.898438 -4.023438 19.234375 -3.046875 C 18.566406 -2.066406 17.691406 -1.347656 16.609375 -0.890625 C 15.523438 -0.441406 14.289062 -0.179688 12.90625 -0.109375 C 11.53125 -0.0351562 10.117188 0 8.671875 0 L 2.890625 0 L 2.890625 -78.015625 L 8.671875 -78.015625 C 10.472656 -78.015625 12.085938 -77.976562 13.515625 -77.90625 C 14.953125 -77.832031 16.164062 -77.566406 17.15625 -77.109375 C 18.144531 -76.660156 18.90625 -75.945312 19.4375 -74.96875 C 19.96875 -73.988281 20.234375 -72.597656 20.234375 -70.796875 L 20.234375 -46.234375 C 20.234375 -44.785156 19.867188 -43.671875 19.140625 -42.890625 C 18.421875 -42.109375 17.335938 -41.519531 15.890625 -41.125 C 17.335938 -40.800781 18.421875 -40.242188 19.140625 -39.453125 C 19.867188 -38.671875 20.234375 -37.5625 20.234375 -36.125 Z M 8.671875 -43.34375 L 13 -43.34375 C 13.363281 -43.34375 13.640625 -43.425781 13.828125 -43.59375 C 14.023438 -43.757812 14.171875 -43.976562 14.265625 -44.25 C 14.359375 -44.519531 14.410156 -44.828125 14.421875 -45.171875 C 14.441406 -45.515625 14.453125 -45.867188 14.453125 -46.234375 L 14.453125 -70.796875 C 14.453125 -71.515625 14.351562 -72.066406 14.15625 -72.453125 C 13.957031 -72.847656 13.628906 -73.132812 13.171875 -73.3125 C 12.722656 -73.5 12.128906 -73.609375 11.390625 -73.640625 C 10.660156 -73.671875 9.753906 -73.6875 8.671875 -73.6875 Z M 14.453125 -36.125 C 14.453125 -36.476562 14.441406 -36.828125 14.421875 -37.171875 C 14.410156 -37.523438 14.359375 -37.835938 14.265625 -38.109375 C 14.171875 -38.378906 14.023438 -38.597656 13.828125 -38.765625 C 13.640625 -38.929688 13.363281 -39.015625 13 -39.015625 L 8.671875 -39.015625 L 8.671875 -4.328125 C 9.753906 -4.328125 10.660156 -4.34375 11.390625 -4.375 C 12.128906 -4.40625 12.722656 -4.507812 13.171875 -4.6875 C 13.628906 -4.875 13.957031 -5.160156 14.15625 -5.546875 C 14.351562 -5.941406 14.453125 -6.5 14.453125 -7.21875 Z M 14.453125 -36.125 "/></g></g></g><g fill="#fff3e5" fill-opacity="1"><g transform="translate(23.867187, 101.575239)"><g><path d="M 13 -69.359375 L 18.78125 -69.359375 L 18.78125 -6.5 C 18.78125 -5.238281 18.550781 -4.144531 18.09375 -3.21875 C 17.644531 -2.300781 17.046875 -1.550781 16.296875 -0.96875 C 15.546875 -0.382812 14.695312 0.0390625 13.75 0.3125 C 12.800781 0.582031 11.832031 0.71875 10.84375 0.71875 C 9.84375 0.71875 8.867188 0.582031 7.921875 0.3125 C 6.972656 0.0390625 6.125 -0.382812 5.375 -0.96875 C 4.625 -1.550781 4.019531 -2.300781 3.5625 -3.21875 C 3.113281 -4.144531 2.890625 -5.238281 2.890625 -6.5 L 2.890625 -69.359375 L 8.671875 -69.359375 L 8.671875 -6.5 C 8.671875 -5.414062 8.894531 -4.660156 9.34375 -4.234375 C 9.800781 -3.816406 10.300781 -3.609375 10.84375 -3.609375 C 11.382812 -3.609375 11.878906 -3.816406 12.328125 -4.234375 C 12.773438 -4.660156 13 -5.414062 13 -6.5 Z M 13 -69.359375 "/></g></g></g><g fill="#fff3e5" fill-opacity="1"><g transform="translate(45.537718, 101.575239)"><g><path d="M 9.390625 -69.359375 L 9.390625 0 L 3.609375 0 L 3.609375 -69.359375 Z M 9.390625 -69.359375 "/></g></g></g><g fill="#fff3e5" fill-opacity="1"><g transform="translate(58.540037, 101.575239)"><g><path d="M 8.671875 -69.359375 L 8.671875 -4.328125 L 14.453125 -4.328125 L 14.453125 0 L 2.890625 0 L 2.890625 -69.359375 Z M 8.671875 -69.359375 "/></g></g></g><g fill="#fff3e5" fill-opacity="1"><g transform="translate(72.987057, 101.575239)"><g><path d="M 14.453125 -63.65625 C 14.453125 -64.226562 14.179688 -64.59375 13.640625 -64.75 C 13.128906 -64.925781 11.472656 -65.015625 8.671875 -65.015625 L 8.671875 -4.328125 C 11.472656 -4.328125 13.128906 -4.421875 13.640625 -4.609375 C 14.179688 -4.785156 14.453125 -5.160156 14.453125 -5.734375 Z M 20.234375 -6.09375 C 20.234375 -4.5625 19.90625 -3.378906 19.25 -2.546875 C 18.601562 -1.722656 17.648438 -1.113281 16.390625 -0.71875 C 15.785156 -0.539062 15.046875 -0.398438 14.171875 -0.296875 C 13.304688 -0.191406 12.101562 -0.109375 10.5625 -0.046875 C 9.03125 -0.015625 7.675781 0 6.5 0 L 2.890625 0 L 2.890625 -69.359375 C 4.117188 -69.359375 5.359375 -69.347656 6.609375 -69.328125 C 7.859375 -69.316406 9.132812 -69.296875 10.4375 -69.265625 C 13.082031 -69.203125 15.035156 -69.003906 16.296875 -68.671875 C 17.585938 -68.304688 18.566406 -67.722656 19.234375 -66.921875 C 19.898438 -66.128906 20.234375 -65 20.234375 -63.53125 Z M 20.234375 -6.09375 "/></g></g></g><g fill="#fff3e5" fill-opacity="1"><g transform="translate(96.10229, 101.575239)"><g><path d="M 8.671875 -57.796875 L 9.4375 -46.234375 L 10.109375 -57.796875 L 11.5625 -78.015625 L 17.34375 -78.015625 L 13 -39.015625 L 17.34375 0 L 11.5625 0 L 10.109375 -20.234375 L 9.390625 -31.78125 L 8.671875 -20.234375 L 7.21875 0 L 1.4375 0 L 5.78125 -39.015625 L 1.4375 -78.015625 L 7.21875 -78.015625 Z M 8.671875 -57.796875 "/></g></g></g><g fill="#fff3e5" fill-opacity="1"><g transform="translate(114.892571, 101.575239)"><g/></g></g><g fill="#fff3e5" fill-opacity="1"><g transform="translate(125.592396, 101.575239)"><g/></g></g><g fill="#fff3e5" fill-opacity="1"><g transform="translate(136.292221, 101.575239)"><g/></g></g><g fill="#fff3e5" fill-opacity="1"><g transform="translate(147.001948, 101.575239)"><g><path d="M 13 -69.359375 L 18.78125 -69.359375 L 18.78125 -6.5 C 18.78125 -5.238281 18.550781 -4.144531 18.09375 -3.21875 C 17.644531 -2.300781 17.046875 -1.550781 16.296875 -0.96875 C 15.546875 -0.382812 14.695312 0.0390625 13.75 0.3125 C 12.800781 0.582031 11.832031 0.71875 10.84375 0.71875 C 9.84375 0.71875 8.867188 0.582031 7.921875 0.3125 C 6.972656 0.0390625 6.125 -0.382812 5.375 -0.96875 C 4.625 -1.550781 4.019531 -2.300781 3.5625 -3.21875 C 3.113281 -4.144531 2.890625 -5.238281 2.890625 -6.5 L 2.890625 -69.359375 L 8.671875 -69.359375 L 8.671875 -6.5 C 8.671875 -5.414062 8.894531 -4.660156 9.34375 -4.234375 C 9.800781 -3.816406 10.300781 -3.609375 10.84375 -3.609375 C 11.382812 -3.609375 11.878906 -3.816406 12.328125 -4.234375 C 12.773438 -4.660156 13 -5.414062 13 -6.5 Z M 13 -69.359375 "/></g></g></g><g fill="#fff3e5" fill-opacity="1"><g transform="translate(168.672479, 101.575239)"><g><path d="M 18.78125 -44.796875 L 13 -44.796875 L 13 -62.84375 C 13 -63.925781 12.773438 -64.675781 12.328125 -65.09375 C 11.878906 -65.519531 11.382812 -65.734375 10.84375 -65.734375 C 10.300781 -65.734375 9.800781 -65.519531 9.34375 -65.09375 C 8.894531 -64.675781 8.671875 -63.925781 8.671875 -62.84375 C 8.671875 -59.625 8.820312 -56.660156 9.125 -53.953125 C 9.425781 -51.242188 9.816406 -48.742188 10.296875 -46.453125 C 10.773438 -44.171875 11.316406 -42.085938 11.921875 -40.203125 C 12.523438 -38.328125 13.125 -36.601562 13.71875 -35.03125 C 14.207031 -33.800781 14.742188 -32.375 15.328125 -30.75 C 15.910156 -29.125 16.457031 -27.179688 16.96875 -24.921875 C 17.488281 -22.660156 17.921875 -20.023438 18.265625 -17.015625 C 18.609375 -14.003906 18.78125 -10.5 18.78125 -6.5 C 18.78125 -5.238281 18.550781 -4.144531 18.09375 -3.21875 C 17.644531 -2.300781 17.046875 -1.550781 16.296875 -0.96875 C 15.546875 -0.382812 14.695312 0.0390625 13.75 0.3125 C 12.800781 0.582031 11.832031 0.71875 10.84375 0.71875 C 9.84375 0.71875 8.867188 0.582031 7.921875 0.3125 C 6.972656 0.0390625 6.125 -0.382812 5.375 -0.96875 C 4.625 -1.550781 4.019531 -2.300781 3.5625 -3.21875 C 3.113281 -4.144531 2.890625 -5.238281 2.890625 -6.5 L 2.890625 -24.5625 L 8.671875 -24.5625 L 8.671875 -6.5 C 8.671875 -5.414062 8.894531 -4.660156 9.34375 -4.234375 C 9.800781 -3.816406 10.300781 -3.609375 10.84375 -3.609375 C 11.382812 -3.609375 11.878906 -3.816406 12.328125 -4.234375 C 12.773438 -4.660156 13 -5.414062 13 -6.5 C 13 -10.382812 12.8125 -13.789062 12.4375 -16.71875 C 12.0625 -19.65625 11.585938 -22.242188 11.015625 -24.484375 C 10.441406 -26.734375 9.816406 -28.703125 9.140625 -30.390625 C 8.460938 -32.078125 7.835938 -33.625 7.265625 -35.03125 C 6.691406 -36.414062 6.140625 -37.992188 5.609375 -39.765625 C 5.085938 -41.546875 4.625 -43.566406 4.21875 -45.828125 C 3.8125 -48.085938 3.488281 -50.625 3.25 -53.4375 C 3.007812 -56.25 2.890625 -59.382812 2.890625 -62.84375 C 2.890625 -64.113281 3.113281 -65.195312 3.5625 -66.09375 C 4.019531 -67 4.625 -67.742188 5.375 -68.328125 C 6.125 -68.921875 6.972656 -69.359375 7.921875 -69.640625 C 8.867188 -69.929688 9.84375 -70.078125 10.84375 -70.078125 C 11.832031 -70.078125 12.800781 -69.929688 13.75 -69.640625 C 14.695312 -69.359375 15.546875 -68.921875 16.296875 -68.328125 C 17.046875 -67.742188 17.644531 -67 18.09375 -66.09375 C 18.550781 -65.195312 18.78125 -64.113281 18.78125 -62.84375 Z M 18.78125 -44.796875 "/></g></g></g><g fill="#fff3e5" fill-opacity="1"><g transform="translate(190.34301, 101.575239)"><g><path d="M 18.0625 -69.359375 L 18.0625 -65.015625 L 12.28125 -65.015625 L 12.28125 0 L 6.5 0 L 6.5 -65.015625 L 0.71875 -65.015625 L 0.71875 -69.359375 Z M 18.0625 -69.359375 "/></g></g></g><g fill="#fff3e5" fill-opacity="1"><g transform="translate(209.124136, 101.575239)"><g><path d="M 20.234375 -6.5 C 20.234375 -5.238281 20 -4.144531 19.53125 -3.21875 C 19.0625 -2.300781 18.4375 -1.539062 17.65625 -0.9375 C 16.875 -0.34375 15.984375 0.09375 14.984375 0.375 C 13.992188 0.664062 12.972656 0.8125 11.921875 0.8125 C 10.804688 0.8125 9.707031 0.648438 8.625 0.328125 C 7.539062 0.015625 6.578125 -0.445312 5.734375 -1.0625 C 4.890625 -1.675781 4.203125 -2.441406 3.671875 -3.359375 C 3.148438 -4.273438 2.890625 -5.320312 2.890625 -6.5 L 2.890625 -62.84375 C 2.890625 -63.988281 3.148438 -65.003906 3.671875 -65.890625 C 4.203125 -66.785156 4.894531 -67.53125 5.75 -68.125 C 6.613281 -68.726562 7.585938 -69.1875 8.671875 -69.5 C 9.753906 -69.820312 10.851562 -69.984375 11.96875 -69.984375 C 13.019531 -69.984375 14.039062 -69.835938 15.03125 -69.546875 C 16.03125 -69.265625 16.910156 -68.828125 17.671875 -68.234375 C 18.441406 -67.648438 19.0625 -66.90625 19.53125 -66 C 20 -65.101562 20.234375 -64.050781 20.234375 -62.84375 Z M 14.453125 -62.84375 C 14.453125 -63.875 14.203125 -64.601562 13.703125 -65.03125 C 13.203125 -65.46875 12.625 -65.6875 11.96875 -65.6875 C 11.570312 -65.6875 11.175781 -65.617188 10.78125 -65.484375 C 10.394531 -65.347656 10.039062 -65.148438 9.71875 -64.890625 C 9.40625 -64.640625 9.148438 -64.34375 8.953125 -64 C 8.765625 -63.65625 8.671875 -63.269531 8.671875 -62.84375 L 8.671875 -6.5 C 8.671875 -6.082031 8.765625 -5.691406 8.953125 -5.328125 C 9.148438 -4.960938 9.40625 -4.660156 9.71875 -4.421875 C 10.039062 -4.179688 10.390625 -3.992188 10.765625 -3.859375 C 11.140625 -3.722656 11.523438 -3.65625 11.921875 -3.65625 C 12.578125 -3.65625 13.160156 -3.875 13.671875 -4.3125 C 14.191406 -4.75 14.453125 -5.476562 14.453125 -6.5 Z M 14.453125 -62.84375 "/></g></g></g><g fill="#fff3e5" fill-opacity="1"><g transform="translate(232.23937, 101.575239)"><g><path d="M 18.015625 -69.359375 L 23.125 -69.359375 L 23.125 0 L 18.0625 0 L 18.0625 -41.90625 L 14.125 -2.890625 L 11.875 -2.890625 L 7.953125 -41.90625 L 7.953125 0 L 2.890625 0 L 2.890625 -69.359375 L 7.984375 -69.359375 L 13 -27.453125 Z M 18.015625 -69.359375 "/></g></g></g></g></g></g><g fill="#ffca8b" fill-opacity="1"><g transform="translate(206.994952, 148.45458)"><g><path d="M 5.40625 -6.984375 C 5.757812 -6.984375 6.082031 -6.910156 6.375 -6.765625 C 6.664062 -6.617188 6.894531 -6.414062 7.0625 -6.15625 C 7.238281 -5.894531 7.328125 -5.597656 7.328125 -5.265625 C 7.328125 -4.410156 6.941406 -3.867188 6.171875 -3.640625 L 6.171875 -3.609375 C 7.054688 -3.398438 7.5 -2.816406 7.5 -1.859375 C 7.5 -1.492188 7.40625 -1.171875 7.21875 -0.890625 C 7.039062 -0.609375 6.796875 -0.390625 6.484375 -0.234375 C 6.171875 -0.078125 5.832031 0 5.46875 0 L 0.75 0 L 0.75 -6.984375 Z M 3 -4.265625 L 4.546875 -4.265625 C 4.691406 -4.265625 4.8125 -4.316406 4.90625 -4.421875 C 5.007812 -4.523438 5.0625 -4.65625 5.0625 -4.8125 L 5.0625 -4.921875 C 5.0625 -5.066406 5.007812 -5.191406 4.90625 -5.296875 C 4.800781 -5.398438 4.679688 -5.453125 4.546875 -5.453125 L 3 -5.453125 Z M 3 -1.625 L 4.703125 -1.625 C 4.847656 -1.625 4.96875 -1.675781 5.0625 -1.78125 C 5.164062 -1.882812 5.21875 -2.015625 5.21875 -2.171875 L 5.21875 -2.28125 C 5.21875 -2.4375 5.164062 -2.566406 5.0625 -2.671875 C 4.96875 -2.773438 4.847656 -2.828125 4.703125 -2.828125 L 3 -2.828125 Z M 3 -1.625 "/></g></g></g><g fill="#ffca8b" fill-opacity="1"><g transform="translate(219.013571, 148.45458)"><g><path d="M 7.703125 -2.8125 C 7.703125 -1.851562 7.398438 -1.125 6.796875 -0.625 C 6.203125 -0.125 5.347656 0.125 4.234375 0.125 C 3.117188 0.125 2.257812 -0.125 1.65625 -0.625 C 1.050781 -1.125 0.75 -1.851562 0.75 -2.8125 L 0.75 -6.984375 L 3 -6.984375 L 3 -2.84375 C 3 -2.445312 3.101562 -2.128906 3.3125 -1.890625 C 3.519531 -1.660156 3.820312 -1.546875 4.21875 -1.546875 C 4.625 -1.546875 4.929688 -1.664062 5.140625 -1.90625 C 5.359375 -2.144531 5.46875 -2.457031 5.46875 -2.84375 L 5.46875 -6.984375 L 7.703125 -6.984375 Z M 7.703125 -2.8125 "/></g></g></g><g fill="#ffca8b" fill-opacity="1"><g transform="translate(231.854379, 148.45458)"><g><path d="M 5.75 0 L 2.8125 -3.390625 L 2.8125 0 L 0.75 0 L 0.75 -6.984375 L 2.71875 -6.984375 L 5.640625 -3.546875 L 5.640625 -6.984375 L 7.703125 -6.984375 L 7.703125 0 Z M 5.75 0 "/></g></g></g><g fill="#ffca8b" fill-opacity="1"><g transform="translate(244.695186, 148.45458)"><g><path d="M 5.484375 -6.984375 L 8.265625 -6.984375 L 5.765625 -4.109375 L 8.3125 0 L 5.671875 0 L 4.21875 -2.5625 L 3 -1.5625 L 3 0 L 0.75 0 L 0.75 -6.984375 L 3 -6.984375 L 3 -4 Z M 5.484375 -6.984375 "/></g></g></g><g fill="#ffca8b" fill-opacity="1"><g transform="translate(257.535994, 148.45458)"><g><path d="M 6.75 0 L 6.75 -2.515625 C 6.75 -2.828125 6.757812 -3.144531 6.78125 -3.46875 C 6.8125 -3.800781 6.835938 -4.078125 6.859375 -4.296875 C 6.890625 -4.523438 6.910156 -4.671875 6.921875 -4.734375 L 6.875 -4.734375 L 5.578125 0 L 3.828125 0 L 2.53125 -4.71875 L 2.484375 -4.71875 C 2.492188 -4.65625 2.515625 -4.515625 2.546875 -4.296875 C 2.578125 -4.078125 2.601562 -3.800781 2.625 -3.46875 C 2.65625 -3.144531 2.671875 -2.828125 2.671875 -2.515625 L 2.671875 0 L 0.609375 0 L 0.609375 -6.984375 L 3.78125 -6.984375 L 4.828125 -2.953125 L 4.875 -2.953125 L 5.921875 -6.984375 L 8.984375 -6.984375 L 8.984375 0 Z M 6.75 0 "/></g></g></g><g fill="#ffca8b" fill-opacity="1"><g transform="translate(271.503278, 148.45458)"><g><path d="M 5.4375 0 L 5.140625 -0.984375 L 2.6875 -0.984375 L 2.390625 0 L 0.09375 0 L 2.65625 -6.984375 L 5.265625 -6.984375 L 7.8125 0 Z M 3.15625 -2.546875 L 4.671875 -2.546875 L 3.9375 -5.03125 L 3.90625 -5.03125 Z M 3.15625 -2.546875 "/></g></g></g><g fill="#ffca8b" fill-opacity="1"><g transform="translate(283.085225, 148.45458)"><g><path d="M 4.765625 -5.203125 L 4.765625 0 L 2.53125 0 L 2.53125 -5.203125 L 0.234375 -5.203125 L 0.234375 -6.984375 L 7.0625 -6.984375 L 7.0625 -5.203125 Z M 4.765625 -5.203125 "/></g></g></g><g fill="#ffca8b" fill-opacity="1"><g transform="translate(294.799557, 148.45458)"><g><path d="M 0.75 -6.984375 L 6.796875 -6.984375 L 6.796875 -5.3125 L 3 -5.3125 L 3 -4.34375 L 6.25 -4.34375 L 6.25 -2.734375 L 3 -2.734375 L 3 -1.671875 L 6.859375 -1.671875 L 6.859375 0 L 0.75 0 Z M 0.75 -6.984375 "/></g></g></g><g fill="#ffca8b" fill-opacity="1"><g transform="translate(306.513889, 148.45458)"><g><path d="M 3.6875 -7.109375 C 4.582031 -7.109375 5.316406 -6.925781 5.890625 -6.5625 C 6.460938 -6.195312 6.757812 -5.660156 6.78125 -4.953125 L 6.78125 -4.828125 L 4.671875 -4.828125 L 4.671875 -4.875 C 4.671875 -5.070312 4.59375 -5.238281 4.4375 -5.375 C 4.289062 -5.507812 4.066406 -5.578125 3.765625 -5.578125 C 3.472656 -5.578125 3.242188 -5.535156 3.078125 -5.453125 C 2.921875 -5.367188 2.84375 -5.257812 2.84375 -5.125 C 2.84375 -4.945312 2.953125 -4.8125 3.171875 -4.71875 C 3.390625 -4.632812 3.738281 -4.546875 4.21875 -4.453125 C 4.78125 -4.335938 5.238281 -4.21875 5.59375 -4.09375 C 5.957031 -3.96875 6.273438 -3.757812 6.546875 -3.46875 C 6.816406 -3.1875 6.957031 -2.800781 6.96875 -2.3125 C 6.96875 -1.488281 6.6875 -0.875 6.125 -0.46875 C 5.570312 -0.0703125 4.828125 0.125 3.890625 0.125 C 2.796875 0.125 1.945312 -0.0546875 1.34375 -0.421875 C 0.738281 -0.785156 0.4375 -1.429688 0.4375 -2.359375 L 2.5625 -2.359375 C 2.5625 -2.015625 2.648438 -1.78125 2.828125 -1.65625 C 3.015625 -1.539062 3.300781 -1.484375 3.6875 -1.484375 C 3.96875 -1.484375 4.203125 -1.515625 4.390625 -1.578125 C 4.578125 -1.640625 4.671875 -1.765625 4.671875 -1.953125 C 4.671875 -2.117188 4.566406 -2.242188 4.359375 -2.328125 C 4.148438 -2.410156 3.8125 -2.5 3.34375 -2.59375 C 2.78125 -2.71875 2.3125 -2.84375 1.9375 -2.96875 C 1.5625 -3.101562 1.234375 -3.320312 0.953125 -3.625 C 0.679688 -3.9375 0.546875 -4.351562 0.546875 -4.875 C 0.546875 -5.632812 0.84375 -6.195312 1.4375 -6.5625 C 2.03125 -6.925781 2.78125 -7.109375 3.6875 -7.109375 Z M 3.6875 -7.109375 "/></g></g></g><g mask="url(#7314320d1d)"><g transform="matrix(1, 0, 0, 1, 181, 114)"><g clip-path="url(#613da1434e)"><g fill="#fff3e5" fill-opacity="1"><g transform="translate(0.426721, 106.561472)"><g><path d="M 21.296875 -48.671875 L 15.203125 -48.671875 L 15.203125 -74.515625 C 15.203125 -75.273438 15.113281 -75.898438 14.9375 -76.390625 C 14.769531 -76.878906 14.539062 -77.257812 14.25 -77.53125 C 13.96875 -77.800781 13.644531 -77.988281 13.28125 -78.09375 C 12.914062 -78.207031 12.546875 -78.265625 12.171875 -78.265625 C 11.785156 -78.265625 11.410156 -78.207031 11.046875 -78.09375 C 10.679688 -77.988281 10.351562 -77.800781 10.0625 -77.53125 C 9.78125 -77.257812 9.550781 -76.878906 9.375 -76.390625 C 9.207031 -75.898438 9.125 -75.273438 9.125 -74.515625 L 9.125 -7.609375 C 9.125 -7.222656 9.140625 -6.769531 9.171875 -6.25 C 9.203125 -5.726562 9.3125 -5.226562 9.5 -4.75 C 9.695312 -4.28125 10 -3.878906 10.40625 -3.546875 C 10.820312 -3.210938 11.410156 -3.046875 12.171875 -3.046875 C 12.929688 -3.046875 13.515625 -3.210938 13.921875 -3.546875 C 14.335938 -3.878906 14.640625 -4.28125 14.828125 -4.75 C 15.015625 -5.226562 15.125 -5.726562 15.15625 -6.25 C 15.1875 -6.769531 15.203125 -7.222656 15.203125 -7.609375 L 15.203125 -39.546875 L 21.296875 -39.546875 L 21.296875 -7.609375 C 21.296875 -7.222656 21.242188 -6.53125 21.140625 -5.53125 C 21.046875 -4.539062 20.710938 -3.519531 20.140625 -2.46875 C 19.578125 -1.425781 18.675781 -0.503906 17.4375 0.296875 C 16.207031 1.109375 14.453125 1.515625 12.171875 1.515625 C 9.890625 1.515625 8.128906 1.109375 6.890625 0.296875 C 5.648438 -0.503906 4.742188 -1.425781 4.171875 -2.46875 C 3.609375 -3.519531 3.28125 -4.539062 3.1875 -5.53125 C 3.09375 -6.53125 3.046875 -7.222656 3.046875 -7.609375 L 3.046875 -74.515625 C 3.046875 -75.972656 3.3125 -77.234375 3.84375 -78.296875 C 4.382812 -79.359375 5.085938 -80.222656 5.953125 -80.890625 C 6.828125 -81.554688 7.800781 -82.046875 8.875 -82.359375 C 9.957031 -82.671875 11.054688 -82.828125 12.171875 -82.828125 C 13.335938 -82.828125 14.46875 -82.648438 15.5625 -82.296875 C 16.65625 -81.953125 17.628906 -81.429688 18.484375 -80.734375 C 19.335938 -80.046875 20.019531 -79.175781 20.53125 -78.125 C 21.039062 -77.082031 21.296875 -75.878906 21.296875 -74.515625 Z M 21.296875 -48.671875 "/></g></g></g></g></g></g><g mask="url(#415b4fa81d)"><g transform="matrix(1, 0, 0, 1, 123, 232)"><g clip-path="url(#71f05c535c)"><g fill="#ffe3c3" fill-opacity="1"><g transform="translate(1.146794, 15.244837)"><g><path d="M 1.21875 0 L 1.21875 -13.359375 L 3.953125 -13.359375 C 4.960938 -13.359375 5.789062 -13.257812 6.4375 -13.0625 C 7.082031 -12.863281 7.628906 -12.507812 8.078125 -12 C 8.523438 -11.5 8.847656 -10.816406 9.046875 -9.953125 C 9.242188 -9.097656 9.34375 -8.003906 9.34375 -6.671875 C 9.34375 -5.347656 9.234375 -4.25 9.015625 -3.375 C 8.796875 -2.5 8.445312 -1.816406 7.96875 -1.328125 C 7.5 -0.835938 6.941406 -0.492188 6.296875 -0.296875 C 5.660156 -0.0976562 4.867188 0 3.921875 0 Z M 6.34375 -1.46875 C 6.925781 -1.769531 7.367188 -2.332031 7.671875 -3.15625 C 7.984375 -3.976562 8.140625 -5.148438 8.140625 -6.671875 C 8.140625 -8.203125 7.988281 -9.378906 7.6875 -10.203125 C 7.382812 -11.023438 6.945312 -11.585938 6.375 -11.890625 C 5.8125 -12.191406 5.003906 -12.34375 3.953125 -12.34375 L 2.34375 -12.34375 L 2.34375 -1.015625 L 3.921875 -1.015625 C 4.960938 -1.015625 5.769531 -1.164062 6.34375 -1.46875 Z M 6.34375 -1.46875 "/></g></g></g><g fill="#ffe3c3" fill-opacity="1"><g transform="translate(15.706791, 15.244837)"><g><path d="M 1.671875 0 L 1.671875 -13.359375 L 8.625 -13.359375 L 8.625 -12.359375 L 2.796875 -12.359375 L 2.796875 -7.296875 L 8.078125 -7.296875 L 8.078125 -6.296875 L 2.796875 -6.296875 L 2.796875 -1 L 8.6875 -1 L 8.6875 0 Z M 1.671875 0 "/></g></g></g><g fill="#ffe3c3" fill-opacity="1"><g transform="translate(30.266787, 15.244837)"><g><path d="M 4.609375 -6.40625 C 3.398438 -6.695312 2.507812 -7.125 1.9375 -7.6875 C 1.375 -8.257812 1.09375 -9.082031 1.09375 -10.15625 C 1.09375 -11.226562 1.460938 -12.0625 2.203125 -12.65625 C 2.953125 -13.257812 3.910156 -13.5625 5.078125 -13.5625 C 6.242188 -13.5625 7.429688 -13.347656 8.640625 -12.921875 L 8.359375 -11.890625 C 7.234375 -12.296875 6.195312 -12.5 5.25 -12.5 C 4.300781 -12.5 3.578125 -12.296875 3.078125 -11.890625 C 2.578125 -11.492188 2.328125 -10.914062 2.328125 -10.15625 C 2.328125 -9.394531 2.53125 -8.816406 2.9375 -8.421875 C 3.34375 -8.023438 4.15625 -7.664062 5.375 -7.34375 C 6.59375 -7.03125 7.472656 -6.609375 8.015625 -6.078125 C 8.554688 -5.554688 8.828125 -4.710938 8.828125 -3.546875 C 8.828125 -2.390625 8.4375 -1.472656 7.65625 -0.796875 C 6.875 -0.128906 5.863281 0.203125 4.625 0.203125 C 3.695312 0.203125 2.53125 0.00390625 1.125 -0.390625 L 1.390625 -1.421875 C 2.773438 -1.046875 3.890625 -0.859375 4.734375 -0.859375 C 5.578125 -0.859375 6.269531 -1.09375 6.8125 -1.5625 C 7.351562 -2.03125 7.625 -2.6875 7.625 -3.53125 C 7.625 -4.375 7.425781 -4.988281 7.03125 -5.375 C 6.632812 -5.769531 5.828125 -6.113281 4.609375 -6.40625 Z M 4.609375 -6.40625 "/></g></g></g><g fill="#ffe3c3" fill-opacity="1"><g transform="translate(44.826784, 15.244837)"><g><path d="M 2.265625 0 L 2.265625 -1.015625 L 4.5625 -1.015625 L 4.5625 -12.34375 L 2.265625 -12.34375 L 2.265625 -13.359375 L 7.953125 -13.359375 L 7.953125 -12.34375 L 5.6875 -12.34375 L 5.6875 -1.015625 L 7.953125 -1.015625 L 7.953125 0 Z M 2.265625 0 "/></g></g></g><g fill="#ffe3c3" fill-opacity="1"><g transform="translate(59.38678, 15.244837)"><g><path d="M 5.421875 0.203125 C 3.847656 0.203125 2.679688 -0.335938 1.921875 -1.421875 C 1.160156 -2.515625 0.78125 -4.265625 0.78125 -6.671875 C 0.78125 -9.085938 1.148438 -10.835938 1.890625 -11.921875 C 2.640625 -13.015625 3.859375 -13.5625 5.546875 -13.5625 C 6.648438 -13.5625 7.804688 -13.34375 9.015625 -12.90625 L 8.734375 -11.875 C 7.492188 -12.289062 6.429688 -12.5 5.546875 -12.5 C 4.265625 -12.5 3.347656 -12.046875 2.796875 -11.140625 C 2.253906 -10.234375 1.984375 -8.757812 1.984375 -6.71875 C 1.984375 -4.675781 2.265625 -3.1875 2.828125 -2.25 C 3.398438 -1.320312 4.265625 -0.859375 5.421875 -0.859375 C 6.117188 -0.859375 6.957031 -1.019531 7.9375 -1.34375 L 7.9375 -5.421875 L 5.625 -5.421875 L 5.625 -6.421875 L 9.046875 -6.421875 L 9.046875 -0.546875 C 7.648438 -0.046875 6.441406 0.203125 5.421875 0.203125 Z M 5.421875 0.203125 "/></g></g></g><g fill="#ffe3c3" fill-opacity="1"><g transform="translate(73.946777, 15.244837)"><g><path d="M 8.03125 0 L 8.03125 -2.09375 L 2.21875 -11.234375 L 2.15625 -11.234375 L 2.15625 0 L 1.046875 0 L 1.046875 -13.359375 L 2.140625 -13.359375 L 7.96875 -4.125 L 8.03125 -4.125 L 8.03125 -13.359375 L 9.15625 -13.359375 L 9.15625 0 Z M 8.03125 0 "/></g></g></g><g fill="#ffe3c3" fill-opacity="1"><g transform="translate(88.506773, 15.244837)"><g><path d="M 1.671875 0 L 1.671875 -13.359375 L 8.625 -13.359375 L 8.625 -12.359375 L 2.796875 -12.359375 L 2.796875 -7.296875 L 8.078125 -7.296875 L 8.078125 -6.296875 L 2.796875 -6.296875 L 2.796875 -1 L 8.6875 -1 L 8.6875 0 Z M 1.671875 0 "/></g></g></g><g fill="#ffe3c3" fill-opacity="1"><g transform="translate(103.06677, 15.244837)"><g><path d="M 5.46875 -5.484375 C 4.726562 -5.441406 4.25 -5.421875 4.03125 -5.421875 L 2.359375 -5.421875 L 2.359375 0 L 1.25 0 L 1.25 -13.359375 L 4.234375 -13.359375 C 5.898438 -13.359375 7.117188 -13.070312 7.890625 -12.5 C 8.660156 -11.925781 9.046875 -10.921875 9.046875 -9.484375 C 9.046875 -8.515625 8.851562 -7.738281 8.46875 -7.15625 C 8.082031 -6.570312 7.460938 -6.097656 6.609375 -5.734375 C 7.535156 -3.972656 8.378906 -2.0625 9.140625 0 L 7.90625 0 C 7.164062 -1.988281 6.351562 -3.816406 5.46875 -5.484375 Z M 4.203125 -12.34375 L 2.359375 -12.34375 L 2.359375 -6.4375 L 4 -6.4375 C 5.25 -6.4375 6.207031 -6.664062 6.875 -7.125 C 7.539062 -7.582031 7.875 -8.367188 7.875 -9.484375 C 7.875 -10.597656 7.578125 -11.351562 6.984375 -11.75 C 6.390625 -12.144531 5.460938 -12.34375 4.203125 -12.34375 Z M 4.203125 -12.34375 "/></g></g></g><g fill="#ffe3c3" fill-opacity="1"><g transform="translate(117.626766, 15.244837)"><g><path d="M 4.609375 -6.40625 C 3.398438 -6.695312 2.507812 -7.125 1.9375 -7.6875 C 1.375 -8.257812 1.09375 -9.082031 1.09375 -10.15625 C 1.09375 -11.226562 1.460938 -12.0625 2.203125 -12.65625 C 2.953125 -13.257812 3.910156 -13.5625 5.078125 -13.5625 C 6.242188 -13.5625 7.429688 -13.347656 8.640625 -12.921875 L 8.359375 -11.890625 C 7.234375 -12.296875 6.195312 -12.5 5.25 -12.5 C 4.300781 -12.5 3.578125 -12.296875 3.078125 -11.890625 C 2.578125 -11.492188 2.328125 -10.914062 2.328125 -10.15625 C 2.328125 -9.394531 2.53125 -8.816406 2.9375 -8.421875 C 3.34375 -8.023438 4.15625 -7.664062 5.375 -7.34375 C 6.59375 -7.03125 7.472656 -6.609375 8.015625 -6.078125 C 8.554688 -5.554688 8.828125 -4.710938 8.828125 -3.546875 C 8.828125 -2.390625 8.4375 -1.472656 7.65625 -0.796875 C 6.875 -0.128906 5.863281 0.203125 4.625 0.203125 C 3.695312 0.203125 2.53125 0.00390625 1.125 -0.390625 L 1.390625 -1.421875 C 2.773438 -1.046875 3.890625 -0.859375 4.734375 -0.859375 C 5.578125 -0.859375 6.269531 -1.09375 6.8125 -1.5625 C 7.351562 -2.03125 7.625 -2.6875 7.625 -3.53125 C 7.625 -4.375 7.425781 -4.988281 7.03125 -5.375 C 6.632812 -5.769531 5.828125 -6.113281 4.609375 -6.40625 Z M 4.609375 -6.40625 "/></g></g></g></g></g></g></svg>