<svg width="359" height="116" viewBox="0 0 359 116" fill="none" xmlns="http://www.w3.org/2000/svg">
<path d="M28.0625 104C28.0625 106.5 27.6042 108.438 26.6875 109.812C25.7708 111.146 24.5625 112.125 23.0625 112.75C21.5625 113.375 19.8542 113.75 17.9375 113.875C16.0208 113.958 14.0625 114 12.0625 114H4.0625V6H12.0625C14.5625 6 16.7917 6.0625 18.75 6.1875C20.75 6.27083 22.4375 6.625 23.8125 7.25C25.1875 7.875 26.2292 8.875 26.9375 10.25C27.6875 11.5833 28.0625 13.5 28.0625 16V50C28.0625 52 27.5625 53.5417 26.5625 54.625C25.5625 55.7083 24.0625 56.5208 22.0625 57.0625C24.0625 57.5208 25.5625 58.2917 26.5625 59.375C27.5625 60.4583 28.0625 62 28.0625 64V104ZM12.0625 54H18.0625C18.5625 54 18.9375 53.8958 19.1875 53.6875C19.4792 53.4375 19.6875 53.125 19.8125 52.75C19.9375 52.375 20 51.9583 20 51.5C20.0417 51 20.0625 50.5 20.0625 50V16C20.0625 15 19.9167 14.2292 19.625 13.6875C19.375 13.1458 18.9375 12.75 18.3125 12.5C17.6875 12.25 16.8542 12.1042 15.8125 12.0625C14.8125 12.0208 13.5625 12 12.0625 12V54ZM20.0625 64C20.0625 63.5 20.0417 63.0208 20 62.5625C20 62.0625 19.9375 61.625 19.8125 61.25C19.6875 60.875 19.4792 60.5833 19.1875 60.375C18.9375 60.125 18.5625 60 18.0625 60H12.0625V108C13.5625 108 14.8125 107.979 15.8125 107.938C16.8542 107.896 17.6875 107.75 18.3125 107.5C18.9375 107.25 19.375 106.854 19.625 106.312C19.9167 105.771 20.0625 105 20.0625 104V64ZM50.0625 18H58.0625V105C58.0625 106.75 57.75 108.271 57.125 109.562C56.5 110.812 55.6667 111.854 54.625 112.688C53.5833 113.479 52.3958 114.062 51.0625 114.438C49.7708 114.812 48.4375 115 47.0625 115C45.6875 115 44.3333 114.812 43 114.438C41.7083 114.062 40.5417 113.479 39.5 112.688C38.4583 111.854 37.625 110.812 37 109.562C36.375 108.271 36.0625 106.75 36.0625 105V18H44.0625V105C44.0625 106.5 44.375 107.542 45 108.125C45.625 108.708 46.3125 109 47.0625 109C47.8125 109 48.5 108.708 49.125 108.125C49.75 107.542 50.0625 106.5 50.0625 105V18ZM75.0625 18V114H67.0625V18H75.0625ZM92.0625 18V108H100.062V114H84.0625V18H92.0625ZM120.062 25.875C120.062 25.0833 119.688 24.5833 118.938 24.375C118.229 24.125 115.938 24 112.062 24V108C115.938 108 118.229 107.875 118.938 107.625C119.688 107.375 120.062 106.854 120.062 106.062V25.875ZM128.062 105.562C128.062 107.688 127.604 109.333 126.688 110.5C125.812 111.625 124.5 112.458 122.75 113C121.917 113.25 120.896 113.458 119.688 113.625C118.479 113.75 116.812 113.854 114.688 113.938C112.562 113.979 110.688 114 109.062 114H104.062V18C105.771 18 107.479 18.0208 109.188 18.0625C110.938 18.0625 112.708 18.0833 114.5 18.125C118.167 18.2083 120.875 18.4792 122.625 18.9375C124.417 19.4375 125.771 20.25 126.688 21.375C127.604 22.4583 128.062 24.0208 128.062 26.0625V105.562ZM144.062 34L145.125 50L146.062 34L148.062 6H156.062L150.062 60L156.062 114H148.062L146.062 86L145.062 70L144.062 86L142.062 114H134.062L140.062 60L134.062 6H142.062L144.062 34ZM200.938 50H192.938V16C192.938 15 192.812 14.1875 192.562 13.5625C192.354 12.8958 192.062 12.3958 191.688 12.0625C191.312 11.6875 190.875 11.4375 190.375 11.3125C189.917 11.1458 189.438 11.0625 188.938 11.0625C188.438 11.0625 187.938 11.1458 187.438 11.3125C186.979 11.4375 186.562 11.6875 186.188 12.0625C185.812 12.3958 185.5 12.8958 185.25 13.5625C185.042 14.1875 184.938 15 184.938 16V104C184.938 104.5 184.958 105.104 185 105.812C185.042 106.479 185.188 107.125 185.438 107.75C185.688 108.375 186.083 108.917 186.625 109.375C187.167 109.792 187.938 110 188.938 110C189.938 110 190.708 109.792 191.25 109.375C191.792 108.917 192.188 108.375 192.438 107.75C192.688 107.125 192.833 106.479 192.875 105.812C192.917 105.104 192.938 104.5 192.938 104V62H200.938V104C200.938 104.5 200.875 105.417 200.75 106.75C200.625 108.042 200.188 109.375 199.438 110.75C198.688 112.125 197.5 113.333 195.875 114.375C194.25 115.458 191.938 116 188.938 116C185.938 116 183.625 115.458 182 114.375C180.375 113.333 179.188 112.125 178.438 110.75C177.688 109.375 177.25 108.042 177.125 106.75C177 105.417 176.938 104.5 176.938 104V16C176.938 14.0833 177.292 12.4375 178 11.0625C178.708 9.64583 179.625 8.5 180.75 7.625C181.917 6.75 183.208 6.10417 184.625 5.6875C186.042 5.27083 187.479 5.0625 188.938 5.0625C190.479 5.0625 191.958 5.29167 193.375 5.75C194.833 6.20833 196.125 6.89583 197.25 7.8125C198.375 8.72917 199.271 9.875 199.938 11.25C200.604 12.625 200.938 14.2083 200.938 16V50ZM222.938 18H230.938V105C230.938 106.75 230.625 108.271 230 109.562C229.375 110.812 228.542 111.854 227.5 112.688C226.458 113.479 225.271 114.062 223.938 114.438C222.646 114.812 221.312 115 219.938 115C218.562 115 217.208 114.812 215.875 114.438C214.583 114.062 213.417 113.479 212.375 112.688C211.333 111.854 210.5 110.812 209.875 109.562C209.25 108.271 208.938 106.75 208.938 105V18H216.938V105C216.938 106.5 217.25 107.542 217.875 108.125C218.5 108.708 219.188 109 219.938 109C220.688 109 221.375 108.708 222 108.125C222.625 107.542 222.938 106.5 222.938 105V18ZM260.938 52H252.938V27C252.938 25.5 252.625 24.4583 252 23.875C251.375 23.2917 250.688 23 249.938 23C249.188 23 248.5 23.2917 247.875 23.875C247.25 24.4583 246.938 25.5 246.938 27C246.938 31.4583 247.146 35.5625 247.562 39.3125C247.979 43.0625 248.521 46.5208 249.188 49.6875C249.854 52.8542 250.604 55.75 251.438 58.375C252.271 60.9583 253.104 63.3333 253.938 65.5C254.604 67.2083 255.333 69.1875 256.125 71.4375C256.958 73.6875 257.729 76.375 258.438 79.5C259.146 82.625 259.729 86.2708 260.188 90.4375C260.688 94.6042 260.938 99.4583 260.938 105C260.938 106.75 260.625 108.271 260 109.562C259.375 110.812 258.542 111.854 257.5 112.688C256.458 113.479 255.271 114.062 253.938 114.438C252.646 114.812 251.312 115 249.938 115C248.562 115 247.208 114.812 245.875 114.438C244.583 114.062 243.417 113.479 242.375 112.688C241.333 111.854 240.5 110.812 239.875 109.562C239.25 108.271 238.938 106.75 238.938 105V80H246.938V105C246.938 106.5 247.25 107.542 247.875 108.125C248.5 108.708 249.188 109 249.938 109C250.688 109 251.375 108.708 252 108.125C252.625 107.542 252.938 106.5 252.938 105C252.938 99.625 252.667 94.9167 252.125 90.875C251.625 86.7917 250.979 83.2083 250.188 80.125C249.396 77 248.521 74.2708 247.562 71.9375C246.646 69.6042 245.792 67.4583 245 65.5C244.208 63.5833 243.438 61.3958 242.688 58.9375C241.979 56.4792 241.333 53.6875 240.75 50.5625C240.208 47.4375 239.771 43.9375 239.438 40.0625C239.104 36.1458 238.938 31.7917 238.938 27C238.938 25.25 239.25 23.75 239.875 22.5C240.5 21.25 241.333 20.2292 242.375 19.4375C243.417 18.6042 244.583 18 245.875 17.625C247.208 17.2083 248.562 17 249.938 17C251.312 17 252.646 17.2083 253.938 17.625C255.271 18 256.458 18.6042 257.5 19.4375C258.542 20.2292 259.375 21.25 260 22.5C260.625 23.75 260.938 25.25 260.938 27V52ZM289.938 18V24H281.938V114H273.938V24H265.938V18H289.938ZM318.938 105C318.938 106.75 318.604 108.271 317.938 109.562C317.312 110.812 316.458 111.854 315.375 112.688C314.292 113.521 313.062 114.125 311.688 114.5C310.312 114.917 308.896 115.125 307.438 115.125C305.896 115.125 304.375 114.896 302.875 114.438C301.375 114.021 300.042 113.396 298.875 112.562C297.708 111.688 296.75 110.625 296 109.375C295.292 108.083 294.938 106.625 294.938 105V27C294.938 25.4167 295.292 24.0208 296 22.8125C296.75 21.5625 297.708 20.5208 298.875 19.6875C300.083 18.8542 301.438 18.2292 302.938 17.8125C304.438 17.3542 305.958 17.125 307.5 17.125C308.958 17.125 310.375 17.3333 311.75 17.75C313.125 18.125 314.333 18.7292 315.375 19.5625C316.458 20.3542 317.312 21.375 317.938 22.625C318.604 23.875 318.938 25.3333 318.938 27V105ZM310.938 27C310.938 25.5833 310.583 24.5833 309.875 24C309.208 23.375 308.417 23.0625 307.5 23.0625C306.958 23.0625 306.417 23.1667 305.875 23.375C305.333 23.5417 304.833 23.8125 304.375 24.1875C303.958 24.5208 303.604 24.9375 303.312 25.4375C303.062 25.8958 302.938 26.4167 302.938 27V105C302.938 105.583 303.062 106.125 303.312 106.625C303.604 107.125 303.958 107.542 304.375 107.875C304.833 108.208 305.312 108.479 305.812 108.688C306.354 108.854 306.896 108.938 307.438 108.938C308.354 108.938 309.167 108.646 309.875 108.062C310.583 107.438 310.938 106.417 310.938 105V27ZM347.875 18H354.938V114H347.938V56L342.5 110H339.375L333.938 56V114H326.938V18H334L340.938 76L347.875 18Z" fill="white" fill-opacity="0.75"/>
<path d="M214.579 5.744C214.995 5.744 215.375 5.832 215.719 6.008C216.071 6.176 216.347 6.416 216.547 6.728C216.755 7.04 216.859 7.388 216.859 7.772C216.859 8.788 216.399 9.428 215.479 9.692V9.74C216.527 9.98 217.051 10.668 217.051 11.804C217.051 12.236 216.943 12.62 216.727 12.956C216.519 13.284 216.231 13.54 215.863 13.724C215.495 13.908 215.091 14 214.651 14H209.083V5.744H214.579ZM211.735 8.96H213.559C213.735 8.96 213.879 8.9 213.991 8.78C214.111 8.652 214.171 8.496 214.171 8.312V8.192C214.171 8.016 214.111 7.868 213.991 7.748C213.871 7.62 213.727 7.556 213.559 7.556H211.735V8.96ZM211.735 12.08H213.751C213.927 12.08 214.071 12.02 214.183 11.9C214.303 11.772 214.363 11.616 214.363 11.432V11.312C214.363 11.128 214.303 10.976 214.183 10.856C214.071 10.728 213.927 10.664 213.751 10.664H211.735V12.08ZM233.887 10.676C233.887 11.804 233.531 12.664 232.819 13.256C232.107 13.848 231.095 14.144 229.783 14.144C228.471 14.144 227.455 13.848 226.735 13.256C226.023 12.664 225.667 11.804 225.667 10.676V5.744H228.319V10.64C228.319 11.104 228.443 11.476 228.691 11.756C228.939 12.028 229.299 12.164 229.771 12.164C230.243 12.164 230.603 12.024 230.851 11.744C231.107 11.464 231.235 11.096 231.235 10.64V5.744H233.887V10.676ZM249.127 14L245.659 9.992V14H243.223V5.744H245.539L249.007 9.812V5.744H251.443V14H249.127ZM266.371 5.744H269.659L266.695 9.14L269.719 14H266.587L264.871 10.976L263.431 12.152V14H260.779V5.744H263.431V9.272L266.371 5.744ZM285.427 14V11.024C285.427 10.656 285.439 10.28 285.463 9.896C285.495 9.504 285.527 9.176 285.559 8.912C285.591 8.648 285.611 8.48 285.619 8.408H285.571L284.047 14H281.971L280.435 8.42H280.387C280.395 8.492 280.415 8.66 280.447 8.924C280.487 9.18 280.523 9.504 280.555 9.896C280.587 10.28 280.603 10.656 280.603 11.024V14H278.167V5.744H281.911L283.159 10.508H283.207L284.443 5.744H288.055V14H285.427ZM302.759 14L302.411 12.836H299.519L299.171 14H296.459L299.471 5.744H302.555L305.567 14H302.759ZM300.071 10.988H301.859L300.995 8.048H300.947L300.071 10.988ZM318.047 7.856V14H315.395V7.856H312.683V5.744H320.747V7.856H318.047ZM329.515 5.744H336.655V7.724H332.167V8.864H336.007V10.76H332.167V12.02H336.739V14H329.515V5.744ZM349.203 5.6C350.259 5.6 351.127 5.816 351.807 6.248C352.487 6.672 352.835 7.304 352.851 8.144V8.288H350.367V8.24C350.367 8 350.279 7.8 350.103 7.64C349.927 7.48 349.659 7.4 349.299 7.4C348.947 7.4 348.675 7.452 348.483 7.556C348.299 7.66 348.207 7.788 348.207 7.94C348.207 8.156 348.335 8.316 348.591 8.42C348.847 8.524 349.259 8.632 349.827 8.744C350.491 8.88 351.035 9.024 351.459 9.176C351.891 9.32 352.267 9.56 352.587 9.896C352.907 10.232 353.071 10.688 353.079 11.264C353.079 12.24 352.747 12.964 352.083 13.436C351.427 13.908 350.547 14.144 349.443 14.144C348.155 14.144 347.151 13.928 346.431 13.496C345.719 13.064 345.363 12.3 345.363 11.204H347.871C347.871 11.62 347.979 11.9 348.195 12.044C348.411 12.18 348.747 12.248 349.203 12.248C349.539 12.248 349.815 12.212 350.031 12.14C350.255 12.068 350.367 11.92 350.367 11.696C350.367 11.496 350.243 11.348 349.995 11.252C349.755 11.148 349.359 11.04 348.807 10.928C348.135 10.784 347.579 10.636 347.139 10.484C346.699 10.324 346.315 10.064 345.987 9.704C345.659 9.344 345.495 8.856 345.495 8.24C345.495 7.336 345.843 6.672 346.539 6.248C347.243 5.816 348.131 5.6 349.203 5.6Z" fill="#FFE3C3"/>
</svg>
